# xmcd CD database file
#
# Track frame offsets:
#	187
#	13357
#	26732
#	39319
#	56882
#	74819
#	90144
#	102719
#	121044
#	142294
#	158632
#	173707
#	185719
#	200219
#	217432
#	233257
#	247407
#	262582
#	276294
#	293694
#	312044
#
# Disc length: 4385 seconds
#
# Revision: 0
# Processed by: cddbd v1.5.1PL0 Copyright (c) Steve Scherf et al.
# Submitted via: CDex 1.51
#
DISCID=44111f15
DTITLE=Dolly Parton - The New Best of Dolly Parton
DYEAR=1993
DGENRE=Country
TTITLE0=I Will Always Love You
TTITLE1=Here You Come Again
TTITLE2=Help!
TTITLE3=Great Ball Of Fire
TTITLE4=Starting Over Again
TTITLE5=Old Flames Can't Hold A Candle To You
TTITLE6=9 to 5
TTITLE7=The Houwse of The Rising Sun
TTITLE8=Deportee
TTITLE9=Detroit City
TTITLE10=But You Know I Love You
TTITLE11=Jolene
TTITLE12=Heartbreak Express
TTITLE13=My Blue Ridge Mountain Boy
TTITLE14=Release Me
TTITLE15=Send Me The  Pillow You Dream On
TTITLE16=Jealous Heart
TTITLE17=I Really Don't Want To Know
TTITLE18=Save The Last Dance For Me
TTITLE19=Do I Ever Cross Your Mind
TTITLE20=Once in a Very Blue Moon
EXTD=YEAR: 1993
EXTT0=
EXTT1=
EXTT2=
EXTT3=
EXTT4=
EXTT5=
EXTT6=
EXTT7=
EXTT8=
EXTT9=
EXTT10=
EXTT11=
EXTT12=
EXTT13=
EXTT14=
EXTT15=
EXTT16=
EXTT17=
EXTT18=
EXTT19=
EXTT20=
PLAYORDER=
